<svg width="24" height="25" viewBox="0 0 24 25" fill="none" xmlns="http://www.w3.org/2000/svg">
<path d="M12.03 24.8379H11.9772C5.37698 24.8379 0.00714111 19.4665 0.00714111 12.8643V12.8115C0.00714111 6.20932 5.37698 0.837891 11.9772 0.837891H12.03C18.6302 0.837891 24.0001 6.20932 24.0001 12.8115V12.8643C24.0001 19.4665 18.6302 24.8379 12.03 24.8379ZM11.9772 1.65027C5.82447 1.65027 0.819277 6.65694 0.819277 12.8115V12.8643C0.819277 19.0188 5.82447 24.0255 11.9772 24.0255H12.03C18.1827 24.0255 23.1879 19.0188 23.1879 12.8643V12.8115C23.1879 6.65694 18.1827 1.65027 12.03 1.65027H11.9772Z" fill="#F6F6F6"/>
<path d="M11.1066 13.2738C10.9052 13.0211 10.6745 12.8278 10.4163 12.697C10.6445 12.5581 10.841 12.3875 11.0035 12.1844C11.2771 11.8416 11.416 11.4118 11.416 10.9065C11.416 10.4849 11.3048 10.0974 11.0847 9.75537C10.8654 9.41336 10.5389 9.13877 10.1142 8.93893C9.69835 8.74314 9.19726 8.64404 8.62633 8.64404H5.3786V17.0334H8.77576C9.33208 17.0334 9.8291 16.9319 10.2522 16.732C10.6835 16.529 11.0197 16.2446 11.2503 15.888C11.4818 15.5297 11.5996 15.1227 11.5996 14.6784C11.5996 14.1576 11.4339 13.6856 11.1066 13.2746V13.2738ZM9.38162 11.7449C9.18102 11.9073 8.88784 11.9902 8.51182 11.9902H7.10683V10.1315H8.51182C8.88621 10.1315 9.17777 10.2168 9.37837 10.3858C9.57084 10.5474 9.66424 10.7708 9.66424 11.0665C9.66424 11.3623 9.57166 11.5913 9.38162 11.7449ZM7.10683 13.4785H8.61496C9.00966 13.4785 9.3134 13.5743 9.54323 13.7717C9.76332 13.961 9.87052 14.2121 9.87052 14.5403C9.87052 14.8685 9.77144 15.1 9.56678 15.273C9.35482 15.4525 9.05027 15.5435 8.66044 15.5435H7.10683V13.4785Z" fill="#F6F6F6"/>
<path d="M18.2347 11.8708C17.9732 11.398 17.6029 11.0251 17.1334 10.7635C16.6648 10.5019 16.1231 10.3695 15.5254 10.3695C14.9277 10.3695 14.3454 10.506 13.8654 10.7749C13.3846 11.0446 13.0062 11.4321 12.7414 11.9284C12.4767 12.424 12.3427 13.0057 12.3427 13.6572C12.3427 14.3087 12.4807 14.8912 12.7536 15.3859C13.0265 15.8815 13.4082 16.2714 13.889 16.5444C14.3689 16.8173 14.9196 16.9554 15.5262 16.9554C16.271 16.9554 16.9036 16.7661 17.4071 16.3933C17.9107 16.0204 18.2631 15.5346 18.4556 14.9505L18.4694 14.909H16.9962L16.9873 14.9269C16.7038 15.5013 16.2125 15.7921 15.5254 15.7921C15.0471 15.7921 14.6377 15.6402 14.3088 15.342C13.988 15.0504 13.8037 14.6605 13.7606 14.182H18.5782L18.5823 14.1552C18.6132 13.9626 18.6286 13.7449 18.6286 13.5085C18.6286 12.8944 18.4962 12.3436 18.2347 11.8708ZM14.3316 11.9553C14.6451 11.675 15.0276 11.5336 15.4677 11.5336C15.9542 11.5336 16.3676 11.6774 16.6965 11.9618C17.0165 12.238 17.1862 12.6092 17.2008 13.0641H13.7744C13.8394 12.6019 14.027 12.229 14.3324 11.9561L14.3316 11.9553Z" fill="#F6F6F6"/>
<path d="M17.0896 8.83655H13.8809V9.59694H17.0896V8.83655Z" fill="#F6F6F6"/>
</svg>
