<svg width="25" height="25" viewBox="0 0 25 25" fill="none" xmlns="http://www.w3.org/2000/svg">
<path d="M12.0512 24.8379H11.9984C5.39817 24.8379 0.0283203 19.4665 0.0283203 12.8643V12.8115C0.0283203 6.20931 5.39817 0.837891 11.9984 0.837891H12.0512C18.6514 0.837891 24.0213 6.20931 24.0213 12.8115V12.8643C24.0213 19.4665 18.6514 24.8379 12.0512 24.8379ZM11.9984 1.65027C5.84565 1.65027 0.840457 6.65693 0.840457 12.8115V12.8643C0.840457 19.0189 5.84565 24.0255 11.9984 24.0255H12.0512C18.2039 24.0255 23.2091 19.0189 23.2091 12.8643V12.8115C23.2091 6.65693 18.2039 1.65027 12.0512 1.65027H11.9984Z" fill="#F6F6F6"/>
<path d="M15.6116 5.96155H8.4388C6.45718 5.96155 4.84509 7.57411 4.84509 9.55631V16.1203C4.84509 18.1025 6.45718 19.715 8.4388 19.715H15.6116C17.5932 19.715 19.2053 18.1025 19.2053 16.1203V9.55631C19.2053 7.57411 17.5932 5.96155 15.6116 5.96155ZM6.11284 9.55631C6.11284 8.27357 7.15643 7.22965 8.4388 7.22965H15.6116C16.8939 7.22965 17.9375 8.27357 17.9375 9.55631V16.1203C17.9375 17.403 16.8939 18.4469 15.6116 18.4469H8.4388C7.15643 18.4469 6.11284 17.403 6.11284 16.1203V9.55631Z" fill="#F6F6F6"/>
<path d="M12.0252 16.1812C13.8679 16.1812 15.3679 14.6816 15.3679 12.8375C15.3679 10.9934 13.8687 9.49377 12.0252 9.49377C10.1816 9.49377 8.68243 10.9934 8.68243 12.8375C8.68243 14.6816 10.1816 16.1812 12.0252 16.1812ZM12.0252 10.7627C13.1695 10.7627 14.1002 11.6937 14.1002 12.8383C14.1002 13.983 13.1695 14.9139 12.0252 14.9139C10.8809 14.9139 9.95018 13.983 9.95018 12.8383C9.95018 11.6937 10.8809 10.7627 12.0252 10.7627Z" fill="#F6F6F6"/>
<path d="M15.6774 10.034C16.1736 10.034 16.5781 9.63028 16.5781 9.13311C16.5781 8.63594 16.1744 8.23218 15.6774 8.23218C15.1804 8.23218 14.7767 8.63594 14.7767 9.13311C14.7767 9.63028 15.1804 10.034 15.6774 10.034Z" fill="#F6F6F6"/>
</svg>
