<svg width="49" height="48" viewBox="0 0 49 48" fill="none" xmlns="http://www.w3.org/2000/svg">
<g clip-path="url(#clip0_1_161)">
<path d="M0.84259 0H48.8426V48H0.84259V0Z" fill="#F7DF1E"/>
<path d="M13.4636 40.1123L17.1367 37.8892C17.8454 39.1457 18.4901 40.2088 20.0364 40.2088C21.5186 40.2088 22.4533 39.6291 22.4533 37.3738V22.0367H26.9639V37.4376C26.9639 42.1095 24.2253 44.2361 20.2297 44.2361C16.6213 44.2361 14.5267 42.3673 13.4634 40.1119M29.414 39.6289L33.0868 37.5024C34.0537 39.0814 35.3103 40.2412 37.5333 40.2412C39.4025 40.2412 40.5943 39.3067 40.5943 38.0179C40.5943 36.4714 39.3699 35.9235 37.3078 35.0216L36.1803 34.5379C32.9259 33.1528 30.7672 31.4128 30.7672 27.7397C30.7672 24.3564 33.3448 21.7787 37.3724 21.7787C40.2401 21.7787 42.3022 22.7777 43.7842 25.3875L40.2719 27.6431C39.4985 26.2577 38.6611 25.71 37.3723 25.71C36.0511 25.71 35.2134 26.5477 35.2134 27.6431C35.2134 28.9963 36.0511 29.5444 37.9843 30.3821L39.1119 30.8653C42.9463 32.5087 45.1049 34.1841 45.1049 37.9536C45.1049 42.0137 41.9152 44.2367 37.6299 44.2367C33.4413 44.2367 30.7348 42.2391 29.4138 39.6291" fill="black"/>
</g>
<defs>
<clipPath id="clip0_1_161">
<rect width="48" height="48" fill="white" transform="translate(0.84259)"/>
</clipPath>
</defs>
</svg>
