<svg width="25" height="25" viewBox="0 0 25 25" fill="none" xmlns="http://www.w3.org/2000/svg">
<path d="M12.0441 24.8379H11.9913C5.39109 24.8379 0.0212402 19.4665 0.0212402 12.8643V12.8115C0.0212402 6.20932 5.39109 0.837891 11.9913 0.837891H12.0441C18.6443 0.837891 24.0142 6.20932 24.0142 12.8115V12.8643C24.0142 19.4665 18.6443 24.8379 12.0441 24.8379ZM11.9913 1.65027C5.83858 1.65027 0.833376 6.65694 0.833376 12.8115V12.8643C0.833376 19.0188 5.83858 24.0255 11.9913 24.0255H12.0441C18.1968 24.0255 23.202 19.0188 23.202 12.8643V12.8115C23.202 6.65694 18.1968 1.65027 12.0441 1.65027H11.9913Z" fill="#F6F6F6"/>
<path d="M5.95551 8.95114C5.65015 8.66762 5.49829 8.31668 5.49829 7.89912C5.49829 7.48156 5.65096 7.11517 5.95551 6.83083C6.26088 6.54732 6.65395 6.40515 7.13555 6.40515C7.61715 6.40515 7.99479 6.54732 8.29935 6.83083C8.60471 7.11435 8.75657 7.471 8.75657 7.89912C8.75657 8.32724 8.6039 8.66762 8.29935 8.95114C7.99398 9.23466 7.60659 9.37682 7.13555 9.37682C6.66451 9.37682 6.26088 9.23466 5.95551 8.95114ZM8.49994 10.5775V19.2699H5.75411V10.5775H8.49994Z" fill="#F6F6F6"/>
<path d="M17.6405 11.4362C18.2391 12.0861 18.538 12.9781 18.538 14.1138V19.1163H15.9302V14.4663C15.9302 13.8936 15.7816 13.4484 15.4852 13.1316C15.1887 12.8148 14.7892 12.6555 14.2889 12.6555C13.7886 12.6555 13.389 12.814 13.0926 13.1316C12.7962 13.4484 12.6475 13.8936 12.6475 14.4663V19.1163H10.0244V10.5531H12.6475V11.6888C12.9131 11.3102 13.2713 11.0113 13.7212 10.7911C14.1711 10.571 14.6771 10.4613 15.2399 10.4613C16.2421 10.4613 17.0428 10.7863 17.6405 11.4362Z" fill="#F6F6F6"/>
</svg>
