<svg width="55" height="48" viewBox="0 0 55 48" fill="none" xmlns="http://www.w3.org/2000/svg">
<g clip-path="url(#clip0_1_4)">
<path d="M27.4958 47.6761C18.261 31.6696 9.19813 15.9673 0 0.0284219C2.75606 0.0284219 5.22749 -0.0279393 7.69329 0.0791469C8.12727 0.0988733 8.65989 0.724482 8.93606 1.20637C12.6813 7.53291 16.387 13.8989 20.104 20.2564C20.3154 20.6171 20.5352 20.9694 20.8705 21.5246C21.2087 20.9863 21.4792 20.589 21.7159 20.1719C25.3794 13.8369 29.0429 7.50754 32.6697 1.14719C33.1516 0.301773 33.6758 -0.0307573 34.6424 0.00305936C36.8968 0.0763288 39.1513 0.0256038 41.6311 0.0256038C41.4057 0.513128 41.2704 0.871021 41.0675 1.20355C36.0288 9.93952 31.0071 18.6755 25.9177 27.3946C25.2723 28.4992 25.1117 29.3672 25.9177 30.4268C26.4813 31.1623 26.873 32.0077 27.4704 33.0166C27.8649 32.3769 28.1608 31.9288 28.4285 31.4638C34.2751 21.3508 40.115 11.2386 45.9484 1.12746C46.4049 0.329954 46.8615 0.000241308 47.8027 0.0171496C50.0938 0.0904191 52.3905 0.0396941 55 0.0396941L27.4958 47.6761Z" fill="white"/>
</g>
<defs>
<clipPath id="clip0_1_4">
<rect width="55" height="47.6759" fill="white"/>
</clipPath>
</defs>
</svg>
