<svg width="49" height="48" viewBox="0 0 49 48" fill="none" xmlns="http://www.w3.org/2000/svg">
<g clip-path="url(#clip0_1_136)">
<path d="M37.5926 0H12.0926C5.87942 0 0.842621 5.0368 0.842621 11.25V36.75C0.842621 42.9632 5.87942 48 12.0926 48H37.5926C43.8058 48 48.8426 42.9632 48.8426 36.75V11.25C48.8426 5.0368 43.8058 0 37.5926 0Z" fill="#242938"/>
<path fill-rule="evenodd" clip-rule="evenodd" d="M16.4051 20.625C17.5301 16.125 20.3426 13.875 24.8426 13.875C31.5926 13.875 32.4364 18.9375 35.8114 19.7812C38.0614 20.344 40.0301 19.5002 41.7176 17.25C40.5926 21.75 37.7801 24 33.2801 24C26.5301 24 25.6864 18.9375 22.3114 18.0938C20.0614 17.5312 18.0926 18.375 16.4051 20.625ZM7.96762 30.75C9.09262 26.25 11.9051 24 16.4051 24C23.1551 24 23.9989 29.0625 27.3739 29.9062C29.6239 30.469 31.5926 29.6252 33.2801 27.375C32.1551 31.875 29.3426 34.125 24.8426 34.125C18.0926 34.125 17.2489 29.0625 13.8739 28.2188C11.6239 27.656 9.65512 28.4998 7.96762 30.75Z" fill="url(#paint0_linear_1_136)"/>
</g>
<defs>
<linearGradient id="paint0_linear_1_136" x1="17.0614" y1="13.875" x2="31.4989" y2="34.7812" gradientUnits="userSpaceOnUse">
<stop stop-color="#32B1C1"/>
<stop offset="1" stop-color="#14C6B7"/>
</linearGradient>
<clipPath id="clip0_1_136">
<rect width="48" height="48" fill="white" transform="translate(0.842621)"/>
</clipPath>
</defs>
</svg>
