<svg width="24" height="25" viewBox="0 0 24 25" fill="none" xmlns="http://www.w3.org/2000/svg">
<path d="M12.0371 24.8379H11.9843C5.38407 24.8379 0.0142212 19.4665 0.0142212 12.8643V12.8115C0.0142212 6.20931 5.38407 0.837891 11.9843 0.837891H12.0371C18.6373 0.837891 24.0072 6.20931 24.0072 12.8115V12.8643C24.0072 19.4665 18.6373 24.8379 12.0371 24.8379ZM11.9843 1.65027C5.83155 1.65027 0.826357 6.65693 0.826357 12.8115V12.8643C0.826357 19.0189 5.83155 24.0255 11.9843 24.0255H12.0371C18.1898 24.0255 23.195 19.0189 23.195 12.8643V12.8115C23.195 6.65693 18.1898 1.65027 12.0371 1.65027H11.9843Z" fill="#F6F6F6"/>
<path d="M5.12174 6.49365L10.4672 13.6426L5.08844 19.4551H6.29934L11.0089 14.3664L14.8138 19.4551H18.9337L13.2878 11.9041L18.2946 6.49365H17.0837L12.7469 11.1803L9.24252 6.49365H5.12254H5.12174ZM6.90194 7.38566H8.79422L17.1519 18.5631H15.2596L6.90194 7.38566Z" fill="#F6F6F6"/>
</svg>
